Patient4_TMGait_0pt6_01_left_36_EMG.mot
version=1
nRows=33
nColumns=33
inDegrees=no
endheader
time	1LAddLong	2LGlutMax	3LGlutMed	4LIliopsoas	5LSemiMemb	6LBicFemLong	7LRecFem	8LVastMed	9LVastLat	10LGasMed	11LTibAnt	12lTibPost	13LPeroneusLong	14LSol	15LExtDigLong	16LFlexDigLong	17RAddLong	18RGlutMax	19RGlutMed	20RIliopsoas	21RSemiMemb	22RBicFemLong	23RRecFem	24RVastMed	25RVastLat	26RGasMed	27RTibAnt	28RTibPost	29RPeroneusLong	30RSol	31RExtDigLong	32RFlexDigLong
44.685	0.006866	-0.013733	0.30182	0.006256	0.016937	-0.049133	-0.002747	-0.000153	-0.028687	-0.30518	0.006256	-0.12528	-0.073547	-0.20081	0.008087	-0.098877	0.059357	0.097656	0.37079	0.066376	0.23025	-0.26337	-0.18127	-0.43625	0.88135	-0.002747	0.046692	-0.00824	0.017548	-0.012207	-0.004578	-0.007782
44.686	0.008392	-0.04303	0.29617	0.004883	0.008698	-0.037384	0.014038	0.001984	-0.024261	-0.50949	0.016327	0.043182	-0.046997	-0.18249	0.012512	-0.099792	0.064087	-0.12543	0.18799	0.10422	0.27634	-0.40787	-0.036469	-0.54062	0.65643	-0.003204	0.066833	-0.008545	0.034485	-0.028534	0.002441	-0.001526
44.687	0.01358	-0.027161	0.27618	0.003815	0.003815	-0.046539	0.003662	0.002594	-0.023651	-0.42541	0.003967	0.10086	-0.001068	0.05249	0.027924	-0.058136	0.014954	-0.27786	0.009613	0.074921	0.30518	-0.43182	-0.039215	-0.59616	0.52292	-0.00824	0.073242	-0.005035	0.053711	-0.016632	-0.001221	-0.001984
44.688	0.006256	-0.026855	0.26657	-0.007324	0.006409	0.018616	0.017242	0.006714	-0.02594	-0.31952	0.006714	-0.038605	0.075073	0.11871	0.031891	-0.057068	0.036621	-0.26871	-0.26382	0.025024	0.24841	-0.51865	-0.16724	-0.61264	0.83252	-0.001984	-0.005035	-0.009155	0.16144	0.002441	-0.000916	-0.004272
44.689	0.008698	-0.017548	0.27847	0.019379	-0.008698	0.037842	0.011749	0.001068	-0.036316	-0.19623	0.01297	-0.094452	0.081787	0.13458	0.03067	-0.068665	0.044403	-0.26672	-0.63843	0.040588	0.22522	-0.48065	-0.15915	-0.38238	0.52917	-0.000916	-0.13351	-0.007782	0.33844	-0.000458	-0.003357	-0.001831
44.69	0.011597	0.012665	0.31448	0.032196	-0.032043	0.062256	-0.002747	0.002136	-0.035095	-0.23621	0.001678	0.64255	0.11841	0.16678	-0.00946	-0.13077	0.041504	-0.23529	-0.66773	0.059204	0.31662	-0.42831	-0.16464	-0.23926	-0.12421	-0.001678	-0.097351	-0.006561	0.31982	-0.0383	0	-0.007172
44.691	0.020142	-0.042877	0.31128	0.029602	0.00061	0.077209	0.019226	0.001831	-0.026245	-0.29297	-0.001221	-0.23453	0.097198	0.23239	-0.032043	-0.14816	0.043488	-0.33295	0.12497	0.006714	0.42038	-0.35996	-0.16571	-0.26199	-0.81497	-0.000305	-0.055542	-0.000458	-0.13855	-0.074005	-0.002747	0.006866
44.692	0.012054	-0.06424	0.28915	0.014954	0	0.093231	0.001526	0.003967	-0.029907	-0.26627	0.000458	-0.56213	0.077057	0.059967	-0.027618	0.062866	0.003815	-0.45624	0.60547	-0.080719	0.048676	-0.19089	-0.16144	-0.048218	-1.1203	-0.005035	-0.003662	-0.005188	-0.42572	-0.058746	0	-0.003357
44.693	0.017853	-0.054321	0.30426	0.002136	0.018005	0.066986	0.030975	0.00885	-0.037231	0.17334	0.010071	0.037842	0.028687	0.39383	0.000305	-0.095367	-0.014343	-0.4277	0.72494	-0.11307	-0.36255	0.001984	-0.17197	-0.13199	-0.87845	-0.002899	0.052338	-0.007935	-0.11551	-0.083008	0.006866	-0.006256
44.694	0.010223	-0.057068	0.30991	0.001221	0.026093	0.031433	0.022888	-0.000153	-0.029907	0.20248	0.002441	0.097809	0.033112	0.36011	0.001984	-0.00824	0.031128	-0.48553	0.24658	-0.025635	-0.49728	0.168	0.075073	-0.15106	-0.42236	-0.000153	0.031281	-0.005035	0.22964	-0.054932	-0.002136	-0.007477
44.695	0.011292	-0.057831	0.27542	0.006561	0.016632	0.011444	0.031891	0.000305	-0.028839	-0.15091	0.004272	0.34088	0.050354	0.17166	-0.032654	0.002899	0.03891	-0.29312	-0.1796	-0.037689	-0.24155	0.39917	0.26459	0.076141	-0.22858	-0.013428	-0.033417	-0.011749	0.29984	0.010376	-0.001068	-0.007782
44.696	0.008545	-0.049133	0.27359	0.011749	0.0383	0.010376	0.02121	0.00412	-0.024872	-0.23651	0.00351	0.078125	0.062866	0.11551	-0.00351	-0.027008	-0.01297	-0.13123	-0.16449	-0.096283	0.45883	0.29602	0.3035	0.22476	-0.013275	-0.007935	-0.11993	-0.008545	-0.49606	0.042725	-0.001373	-0.013733
44.697	0.011292	-0.068817	0.27039	0.009308	-0.007629	-0.014801	0.025024	0.000763	-0.027161	-0.12451	0.005646	-0.73776	0.021057	-0.15915	0.010529	0.10727	-0.030518	-0.20004	-0.20599	-0.030975	0.49164	0.20371	0.23285	0.30106	0.12726	-0.00473	-0.11932	-0.009155	-0.26993	0.06546	0.002289	-0.016479
44.698	0.010986	-0.032806	0.26138	0.009308	-0.017242	-0.014496	0.017395	-0.004272	-0.019073	-0.064392	0.006256	-0.031281	-0.00824	-0.50858	0.017242	0.10696	0.003204	-0.090332	-0.31906	0.028839	0.3688	0.1503	0.041199	0.31967	0.057526	-0.001984	0.037842	-0.010986	-0.034485	0.062256	-0.000305	-0.019531
44.699	0.004578	-0.056915	0.24719	-0.005951	-0.021973	-0.003357	0.044403	-0.012054	-0.020447	-0.059814	0.001831	-0.061951	-0.022888	-0.28183	0.035095	-0.16022	0.031433	-0.061798	0.007782	0.054321	0.14053	0.12238	0.052185	0.40024	-0.17792	-0.007172	0.090485	-0.009155	-0.12695	0.085602	-0.001678	-0.01297
44.7	0.001984	-0.080414	0.25528	0.006104	-0.011139	0.000458	0.059967	-0.00412	-0.016632	-0.058136	-0.000763	-0.059052	-0.03891	0.035095	0.028992	0.087433	0.024109	-0.026093	0.005646	0.13992	0.15045	0.11078	0.025482	0.3566	-0.28564	-0.001068	0.19653	-0.00824	-0.080414	0.002289	-0.00061	-0.009308
44.701	-0.083313	-0.065613	0.26367	0.010986	0.017395	-0.014954	0.075378	0.005188	-0.014343	-0.06012	0.008087	-0.044708	-0.029297	0.085907	0.019684	0.06073	0.045013	-0.005798	0.65292	0.10864	0.26657	0.32288	-0.05722	0.45029	-0.38208	0.003967	0.070801	-0.005493	0.022736	-0.096436	-0.005188	-0.010071
44.702	-0.006104	-0.081482	0.25391	0.005341	0.010834	-0.03891	0.068359	-0.001221	-0.011139	-0.065918	0.005493	-0.054626	-0.015564	0.075226	0.016632	0.015717	0.026703	-0.087433	0.50003	0.015869	0.10895	0.36163	-0.20783	0.27725	-0.23697	-0.001068	0.1651	-0.004425	0.084686	-0.11292	-0.002289	-0.002594
44.703	0.015106	-0.062103	0.25604	0.00946	0.01236	0.004578	0.066528	0.003357	-0.00885	-0.018005	0.011597	-0.031433	-0.033417	0.1088	0.013885	-0.011597	0.018463	-0.21225	0.095978	-0.016479	0.12177	0.36941	-0.18326	0.2005	-0.15671	-0.002441	0.14191	-0.009308	0.19867	-0.081787	0.002136	-0.005798
44.704	-0.00946	-0.04425	0.24902	0.011597	-0.022888	0.025024	0.074463	-0.001068	-0.009155	-0.02182	0.019989	-0.04303	-0.016174	0.15976	0.020599	-0.014954	0.069427	-0.061035	0.041351	-0.069275	0.30823	0.29144	-0.16403	0.12726	-0.001678	-0.011597	0.077972	-0.013733	0.041962	-0.062103	0.000458	-0.005798
44.705	0.014954	-0.035706	0.24445	0.01709	-0.032959	0.039215	0.084686	-0.005341	0.003662	-0.015564	0.012207	-0.027618	-0.009918	0.15213	0.035248	-0.045624	0.1297	-0.046082	-0.071869	-0.10162	0.22186	0.28488	-0.20538	-0.050507	0.07309	-0.014038	-0.024872	-0.005646	-0.09552	-0.063629	0.000153	-0.010681
44.706	0.010071	0.009918	0.26123	0.0177	-0.039368	0.027771	0.088959	-0.001984	-0.003967	0.003815	0.011749	-0.028839	-0.036316	0.29999	0.034943	-0.041809	0.11108	-0.071869	-0.2832	0.014343	-0.033264	0.29648	-0.032806	-0.034027	0.071869	-0.009766	-0.22034	-0.007782	-0.028839	-0.10544	-0.000458	-0.005798
44.707	0.002747	0.017395	0.26474	0.017853	-0.025024	0.006561	0.096741	0.002594	-0.001678	0.04364	0.014648	-0.019989	-0.07309	0.37308	0.022278	-0.05188	0.04776	-0.030975	0.23727	0.17288	-0.061951	0.28809	0.12482	-0.053406	0.059967	-0.003052	0.29404	-0.010376	-0.041199	-0.11154	-0.00061	0.001221
44.708	0.014191	-0.019836	0.27252	0.007782	-0.013733	-0.048065	0.090637	-0.004272	0.005646	0.015411	0.010071	-0.01709	-0.010681	0.40832	0.005646	-0.037231	-0.047302	-0.099792	0.18829	0.15701	-0.27573	0.26154	0.1889	-0.22598	0.001678	-0.002289	0.35934	0.000153	-0.039215	-0.15961	-0.000153	0
44.709	0.002899	0.016479	0.2858	0.007172	-0.027008	-0.074463	0.11185	-0.004425	-0.003357	-0.027161	0.003662	-0.020294	0.033112	0.49561	-0.000458	0.00824	-0.066986	-0.04776	-0.15091	0.090179	-0.1593	0.30182	0.023499	-0.25101	0.059204	0	-0.28229	-0.006256	0.033722	-0.14832	0.000305	-0.000916
44.71	0.010986	0.002747	0.2739	0.016022	-0.015564	-0.10757	0.12573	-0.003662	-0.012665	-0.037994	0.005035	-0.02182	0.11734	0.24902	-0.008087	0.018005	-0.050049	-0.027924	0.099487	0.007477	-0.21332	0.32166	-0.16327	-0.16235	0.168	-0.001831	-0.34058	-0.003967	0.31265	0.039978	0.000916	-0.002594
44.711	0.017395	0.012512	0.27756	0.018158	0.01236	-0.17502	0.14038	-0.001221	-0.011292	-0.15701	-0.000305	-0.012817	0.11658	-0.24124	-0.024719	-0.013428	-0.010986	0.031891	0.20767	-0.03479	-0.075378	0.49789	-0.009766	-0.51193	0.10208	-0.002747	-0.55069	-0.005188	0.77118	0.055847	0.001373	-0.011292
44.712	0.009003	0.022888	0.27741	0.01358	0.031433	-0.17914	0.12268	-0.006561	-0.006409	-0.24139	-0.003662	-0.013885	0.024719	-0.44418	-0.013885	0.009308	-0.034943	0.03479	0.13779	0.008698	0.20477	0.37445	0.14389	-0.27054	0.057526	0.001068	-0.54489	-0.000153	0.99014	-0.079803	0.000153	-0.008545
44.713	0.009613	-0.028076	0.27725	0.006714	0.012665	-0.13825	0.11795	0.002899	-0.028534	-0.1767	0.003967	0.001984	-0.037384	-0.68787	0.008392	0.010834	-0.089569	0.13962	-0.07782	0.054169	0.57892	0.12161	0.070953	-0.11444	0.12802	0.003357	-0.63202	-0.011902	0.20905	-0.075073	-0.001221	-0.005646
44.714	0.000305	-0.026398	0.29312	0.005188	0.036469	-0.081482	0.097046	0.005188	-0.011749	0.2536	0.009613	-0.005341	-0.055542	-0.52445	0.014648	0.009003	-0.10651	0.14175	0.075989	0.025482	0.71045	0.001221	-0.001984	-0.029449	0.17899	0.000763	-0.61417	-0.009918	-0.89829	0.028687	-0.003815	-0.011292
44.715	-0.001373	0.006409	0.28748	0.005188	0.019684	-0.054169	0.10422	0.002899	0.001526	0.2179	0	-0.010071	-0.045319	-0.096741	0.016785	-0.016022	-0.048218	0.06012	0.65613	-0.027313	0.48737	0.28015	-0.056915	0.58807	0.18646	0.002136	-0.4892	-0.010071	-0.80292	0.11032	0	-0.019836
44.716	0.005341	0.022736	0.30884	0.020142	0.012817	-0.058136	0.10941	0.003357	0.000153	0.31921	0.001678	-0.005951	-0.01358	0.15869	0.014191	-0.032959	-0.045776	-0.046692	0.58594	-0.01709	0.23804	0.35049	-0.25711	0.69626	0.19867	-0.001221	-0.34759	-0.009003	-0.26093	0.11063	-0.003052	-0.013885
44.717	0.010529	0.032501	0.30121	0.018005	0.008698	-0.065765	0.079803	0.006256	-0.008545	0.3273	0.014954	-0.009613	0.004272	0.18112	0.002747	-0.014343	-0.006561	-0.19012	0.62653	-0.020599	0.2243	0.22522	0.041504	0.2475	0.14664	-0.007172	-0.058746	-0.009766	-0.12299	0.112	-0.001678	-0.004272
